<svg id="Layer_1" data-name="Layer 1" xmlns="http://www.w3.org/2000/svg" width="125px" height="60px" viewBox="0 0 288.06 144.91"><defs><style>.cls-1{fill:#003d7b;}.cls-2{fill:#a1a3a6;}.cls-3{fill:#c0c2c4;}.cls-4{fill:#002561;}.cls-5{fill:#1b75bc;}.cls-6{fill:#004485;}.cls-7{fill:#034694;}.cls-8{font-size:38.28px;fill:#8b5e3c;font-family:Flexo-Heavy, Flexo;font-weight:800;}.cls-9{letter-spacing:0.01em;}.cls-10{letter-spacing:-0.01em;}.cls-11{letter-spacing:0em;}.cls-12{font-size:14.75px;}.cls-13{letter-spacing:0em;}.cls-14{letter-spacing:0em;}.cls-15{letter-spacing:0.02em;}.cls-16{letter-spacing:-0.01em;}.cls-17{letter-spacing:-0.03em;}.cls-18{letter-spacing:0em;}.cls-19{letter-spacing:-0.01em;}.cls-20{letter-spacing:0em;}.cls-21{letter-spacing:0em;}.cls-22{letter-spacing:0.01em;}.cls-23{letter-spacing:0em;}.cls-24{letter-spacing:-0.01em;}.cls-25{letter-spacing:-0.01em;}</style></defs><title>one window p-t-i logo</title><polygon class="cls-1" points="20.58 92 25.55 91.25 25.74 115.42 20.77 116.18 20.58 92"/><polygon class="cls-1" points="20.37 65.81 25.34 65.05 25.53 89.07 20.56 89.83 20.37 65.81"/><polygon class="cls-1" points="20.77 116.18 25.74 115.42 37.84 119.89 32.87 120.64 20.77 116.18"/><polygon class="cls-2" points="20.58 92 25.55 91.25 37.61 91.25 32.64 92 20.58 92"/><polygon class="cls-3" points="32.64 92 37.61 91.25 37.84 119.89 32.87 120.65 32.64 92"/><polygon class="cls-4" points="20.56 89.83 25.53 89.07 37.59 89.07 32.62 89.83 20.56 89.83"/><polygon class="cls-1" points="34.94 92 39.91 91.25 40.15 120.88 35.18 121.63 34.94 92"/><polygon class="cls-4" points="32.39 61.15 37.36 60.39 25.34 65.05 20.37 65.81 32.39 61.15"/><polygon class="cls-3" points="32.39 61.15 37.36 60.39 37.59 89.07 32.62 89.83 32.39 61.15"/><polygon class="cls-1" points="34.68 60.05 39.65 59.29 39.89 89.07 34.92 89.83 34.68 60.05"/><polygon class="cls-1" points="35.18 121.63 40.15 120.88 56.52 127.03 51.55 127.78 35.18 121.63"/><polygon class="cls-2" points="34.94 92 39.91 91.25 56.23 91.25 51.26 92 34.94 92"/><polygon class="cls-3" points="51.26 92 56.23 91.25 56.52 127.03 51.55 127.78 51.26 92"/><polygon class="cls-4" points="34.92 89.83 39.89 89.07 56.21 89.07 51.24 89.83 34.92 89.83"/><polygon class="cls-4" points="50.95 53.21 55.92 52.45 39.65 59.29 34.68 60.05 50.95 53.21"/><polygon class="cls-3" points="50.95 53.21 55.92 52.45 56.21 89.07 51.24 89.83 50.95 53.21"/><path class="cls-5" d="M85.28,134.53,131,110.09l.87,108.15L85.76,193.69Zm37.59,28.63-.3-36.62-16.26,6.84.24,29.78Zm.3,38-.28-35.78H106.57L106.8,195Zm-18.92-38L104,134.48l-12,4.66.19,24ZM104.5,194l-.23-28.65H92.21l.19,24.18Z" transform="translate(-71.63 -73.33)"/><polygon class="cls-1" points="59.39 36.76 64.36 36.01 65.23 144.16 60.26 144.91 59.39 36.76"/><polygon class="cls-1" points="59.53 26.34 64.5 25.59 5.06 62.79 0.09 63.54 59.53 26.34"/><polygon class="cls-5" points="59.32 0.75 59.53 26.34 0.09 63.54 0 51.8 59.32 0.75"/><polygon class="cls-6" points="59.32 0.75 64.29 0 64.49 25.59 59.53 26.34 59.32 0.75"/><polygon class="cls-4" points="59.32 0.75 64.29 0 124.42 51.04 119.45 51.8 59.32 0.75"/><polygon class="cls-4" points="119.45 51.8 124.42 51.04 124.51 62.79 119.54 63.54 119.45 51.8"/><polygon class="cls-7" points="59.32 0.75 119.45 51.8 119.55 63.54 59.53 26.34 59.32 0.75"/><text class="cls-8" transform="translate(66.38 116.3)">One <tspan class="cls-9" x="79.27" y="0">W</tspan><tspan x="113.44" y="0">ind</tspan><tspan class="cls-10" x="169.6" y="0">o</tspan><tspan class="cls-11" x="191.09" y="0">w</tspan><tspan class="cls-12"><tspan x="7.14" y="13.89">P</tspan><tspan class="cls-13" x="16.32" y="13.89">r</tspan><tspan class="cls-14" x="21.68" y="13.89">o</tspan><tspan x="30.08" y="13.89">pe</tspan><tspan class="cls-15" x="47.19" y="13.89">r</tspan><tspan class="cls-13" x="52.89" y="13.89">t</tspan><tspan class="cls-16" x="58.84" y="13.89">i</tspan><tspan x="63.01" y="13.89">es &amp; </tspan><tspan class="cls-17" x="96.19" y="13.89">T</tspan><tspan class="cls-18" x="103.49" y="13.89">r</tspan><tspan class="cls-19" x="108.95" y="13.89">a</tspan><tspan x="117.04" y="13.89">i</tspan><tspan class="cls-20" x="121.31" y="13.89">n</tspan><tspan x="129.88" y="13.89">ing </tspan><tspan class="cls-21" x="155.12" y="13.89">I</tspan><tspan x="159.6" y="13.89">n</tspan><tspan class="cls-22" x="168.22" y="13.89">s</tspan><tspan class="cls-23" x="175.6" y="13.89">t</tspan><tspan class="cls-24" x="181.54" y="13.89">it</tspan><tspan x="191.67" y="13.89">u</tspan><tspan class="cls-25" x="200.27" y="13.89">t</tspan><tspan x="206.16" y="13.89">e</tspan></tspan></text></svg>